# xmcd
#
# Track frame offsets: 
#        150
#        19690
#        39155
#        56145
#        73885
#        91737
#        110302
#        128867
#        148369
#        166671
#
# Disc length: 2482 seconds
#
# Revision: 0
# Processed by: cddbd v1.5.2PL0 Copyright (c) Steve Scherf et al.
# Submitted via: ExactAudioCopy v0.99pb4
#
DISCID=8409b00a
DTITLE=ศักดิ์ ภูเวียง - แนวคนเคยกอด
DYEAR=2008
DGENRE=Country
TTITLE0=มันบ่ใช่
TTITLE1=สิไปได้จักน้ำ
TTITLE2=แนวคนเคยกอด
TTITLE3=กะคิดฮอดตั๊วะเนาะ
TTITLE4=ไปนำเขาอ้อนต้อน
TTITLE5=ผู้ชายเหล้าขาว
TTITLE6=แอบอ่านทางใจ
TTITLE7=คิดคืออ้ายบ่
TTITLE8=สิเหลือหยังมาให้อ้าย
TTITLE9=หมองูตายเพราะงู
EXTD=
EXTT0=
EXTT1=
EXTT2=
EXTT3=
EXTT4=
EXTT5=
EXTT6=
EXTT7=
EXTT8=
EXTT9=
PLAYORDER=
